<svg width="20" height="20" viewBox="0 0 20 20" fill="none" xmlns="http://www.w3.org/2000/svg">
<path d="M18.6584 5.10534C17.7642 3.53477 16.5513 2.29135 15.0193 1.37479C13.487 0.458185 11.8143 0 9.99984 0C8.18563 0 6.51234 0.458325 4.98042 1.37479C3.44828 2.2913 2.23537 3.53477 1.34115 5.10534C0.447065 6.67587 0 8.39089 0 10.2504C0 12.484 0.635733 14.4926 1.90752 16.2766C3.17917 18.0607 4.82195 19.2952 6.83572 19.9803C7.07013 20.0249 7.24366 19.9936 7.35649 19.887C7.46936 19.7804 7.52573 19.6467 7.52573 19.4868C7.52573 19.4601 7.52349 19.2199 7.51916 18.766C7.51469 18.3122 7.51259 17.9162 7.51259 17.5783L7.2131 17.6315C7.02216 17.6673 6.78127 17.6825 6.49045 17.6782C6.19976 17.674 5.898 17.6428 5.58556 17.5847C5.27298 17.5272 4.98225 17.3937 4.71313 17.1846C4.44416 16.9755 4.25321 16.7018 4.14034 16.3639L4.01013 16.0568C3.92335 15.8523 3.78671 15.6251 3.60005 15.3761C3.41339 15.1269 3.22463 14.958 3.03369 14.869L2.94252 14.8021C2.88178 14.7577 2.82541 14.704 2.77328 14.6418C2.7212 14.5796 2.68221 14.5173 2.65617 14.455C2.63008 14.3926 2.6517 14.3414 2.72125 14.3012C2.79079 14.261 2.91648 14.2416 3.09886 14.2416L3.35917 14.2814C3.53279 14.3171 3.74754 14.4236 4.0037 14.6017C4.25973 14.7796 4.4702 15.0109 4.63515 15.2956C4.8349 15.6605 5.07556 15.9385 5.3578 16.1299C5.63983 16.3212 5.92417 16.4167 6.21057 16.4167C6.49697 16.4167 6.74433 16.3945 6.95275 16.3502C7.16093 16.3057 7.35626 16.2388 7.53863 16.1499C7.61675 15.5535 7.82946 15.0953 8.17655 14.775C7.68183 14.7217 7.23705 14.6414 6.84197 14.5347C6.44712 14.4278 6.0391 14.2544 5.61816 14.0139C5.197 13.7738 4.84762 13.4756 4.56993 13.1198C4.2922 12.7639 4.06427 12.2966 3.88645 11.7183C3.70855 11.1399 3.61957 10.4726 3.61957 9.71627C3.61957 8.63941 3.96252 7.72304 4.64828 6.96665C4.32704 6.15705 4.35737 5.24947 4.73936 4.244C4.9911 4.16382 5.36442 4.22399 5.85914 4.42412C6.35395 4.62434 6.71624 4.79587 6.94636 4.93808C7.17648 5.08024 7.36087 5.20071 7.49978 5.29842C8.30721 5.06715 9.14046 4.95149 9.99975 4.95149C10.859 4.95149 11.6925 5.06715 12.4999 5.29842L12.9947 4.97823C13.3331 4.76459 13.7326 4.56881 14.1924 4.39083C14.6525 4.21296 15.0043 4.16396 15.2474 4.24414C15.6379 5.24966 15.6727 6.15719 15.3514 6.96679C16.0371 7.72318 16.3802 8.63979 16.3802 9.71641C16.3802 10.4727 16.2909 11.1421 16.1132 11.725C15.9354 12.308 15.7055 12.7749 15.4235 13.1265C15.1411 13.4781 14.7895 13.774 14.3686 14.0141C13.9475 14.2544 13.5394 14.4278 13.1445 14.5347C12.7495 14.6415 12.3047 14.7219 11.81 14.7752C12.2612 15.1755 12.4869 15.8073 12.4869 16.6704V19.4864C12.4869 19.6464 12.5411 19.7799 12.6498 19.8867C12.7583 19.9932 12.9296 20.0246 13.164 19.9799C15.1781 19.2949 16.8208 18.0603 18.0924 16.2762C19.3639 14.4922 19.9999 12.4837 19.9999 10.25C19.9994 8.39075 19.5521 6.67587 18.6584 5.10534Z" fill="white"/>
</svg>
